<svg width="32" height="32" viewBox="0 0 32 32" fill="none" xmlns="http://www.w3.org/2000/svg">
<path d="M16 30L7.56401 20.051C7.44679 19.9016 7.33078 19.7513 7.21601 19.6C5.77571 17.7014 4.99733 15.3831 5.00001 13C5.00001 10.0826 6.15893 7.28473 8.22183 5.22183C10.2847 3.15893 13.0826 2 16 2C18.9174 2 21.7153 3.15893 23.7782 5.22183C25.8411 7.28473 27 10.0826 27 13C27.0023 15.382 26.2243 17.6991 24.785 19.597L24.784 19.6C24.784 19.6 24.484 19.994 24.439 20.047L16 30ZM8.81301 18.395C8.81301 18.395 9.04601 18.703 9.09901 18.769L16 26.908L22.91 18.758C22.954 18.703 23.188 18.393 23.189 18.392C24.3662 16.8411 25.0024 14.947 25 13C25 10.6131 24.0518 8.32387 22.364 6.63604C20.6761 4.94821 18.387 4 16 4C13.6131 4 11.3239 4.94821 9.63605 6.63604C7.94822 8.32387 7.00001 10.6131 7.00001 13C6.99754 14.9483 7.63445 16.8436 8.81301 18.395Z" fill="#92929D"/>
<path d="M21 18H19V10H13V18H11V10C11 9.46957 11.2107 8.96086 11.5858 8.58579C11.9609 8.21071 12.4696 8 13 8H19C19.5304 8 20.0391 8.21071 20.4142 8.58579C20.7893 8.96086 21 9.46957 21 10V18Z" fill="#92929D"/>
<path d="M15 16H17V18H15V16ZM15 12H17V14H15V12Z" fill="#92929D"/>
</svg>