<svg width="40" height="40" viewBox="0 0 40 40" fill="none" xmlns="http://www.w3.org/2000/svg">
<rect x="0.5" y="0.5" width="39" height="39" rx="3.5" stroke="#92929D"/>
<path d="M28 12C28.5304 12 29.0391 12.2107 29.4142 12.5858C29.7893 12.9609 30 13.4696 30 14V26C30 26.5304 29.7893 27.0391 29.4142 27.4142C29.0391 27.7893 28.5304 28 28 28H12C11.4696 28 10.9609 27.7893 10.5858 27.4142C10.2107 27.0391 10 26.5304 10 26V14C10 13.4696 10.2107 12.9609 10.5858 12.5858C10.9609 12.2107 11.4696 12 12 12H28ZM28 26V14H12V26H28ZM14 18H16V20H14V18ZM14 22H22V24H14V22ZM24 22H26V24H24V22ZM18 18H26V20H18V18Z" fill="#92929D"/>
</svg>