<svg width="140" height="139" viewBox="0 0 140 139" fill="none" xmlns="http://www.w3.org/2000/svg">
<rect x="0.5" width="139" height="139" rx="69.5" fill="#4ADE80" fill-opacity="0.3"/>
<rect x="12.5" y="12" width="115" height="115" rx="57.5" fill="#4ADE80"/>
<g clip-path="url(#clip0_1106_2358)">
<path d="M70.1667 111.333C93.1785 111.333 111.833 92.6785 111.833 69.6667C111.833 46.6548 93.1785 28 70.1667 28C47.1548 28 28.5 46.6548 28.5 69.6667C28.5 92.6785 47.1548 111.333 70.1667 111.333Z" fill="#4ADE80" stroke="#FCFCFC" stroke-width="2" stroke-linecap="round" stroke-linejoin="round"/>
<path d="M80.2307 66.7547H60.7693C60.3756 66.7556 59.987 66.8452 59.6327 67.017C59.2783 67.1887 58.9673 67.4382 58.7227 67.7467C58.4797 68.055 58.3099 68.4143 58.226 68.7977C58.1422 69.1811 58.1465 69.5786 58.2387 69.9601L60.3253 78.5041C60.6269 79.6051 61.283 80.5761 62.192 81.2667C63.1013 81.9587 64.2147 82.3334 65.36 82.3334H75.6373C76.7827 82.3334 77.896 81.9587 78.8053 81.2667C79.7144 80.5761 80.3704 79.6051 80.672 78.5041L82.7587 69.9614C82.8991 69.3855 82.8375 68.7788 82.5841 68.2429C82.3307 67.7069 81.9009 67.2743 81.3667 67.0174C81.0117 66.8452 80.6225 66.7554 80.228 66.7547M65.2827 71.9467V77.1401M70.5 71.9467V77.1401M75.7173 71.9467V77.1401M79.6307 66.7547C79.6302 65.5601 79.3937 64.3774 78.9347 63.2745C78.4757 62.1716 77.8032 61.1703 76.956 60.3281C75.2403 58.6226 72.9192 57.6657 70.5 57.6667C68.0808 57.6657 65.7597 58.6226 64.044 60.3281C63.197 61.1704 62.5248 62.1718 62.066 63.2747C61.6073 64.3776 61.371 65.5602 61.3707 66.7547" stroke="#FCFCFC" stroke-width="1.5" stroke-linecap="round" stroke-linejoin="round"/>
</g>
<defs>
<clipPath id="clip0_1106_2358">
<rect width="85" height="85" fill="white" transform="translate(27.5 27)"/>
</clipPath>
</defs>
</svg>