<svg width="140" height="139" viewBox="0 0 140 139" fill="none" xmlns="http://www.w3.org/2000/svg">
<rect x="0.5" width="139" height="139" rx="69.5" fill="#FF3333" fill-opacity="0.3"/>
<rect x="12.5" y="12" width="115" height="115" rx="57.5" fill="#FF3333"/>
<path d="M70 84.9922C70.6065 84.9922 71.1145 84.7873 71.5242 84.3776C71.9316 83.9679 72.1353 83.4598 72.1353 82.8534C72.1353 82.2492 71.9305 81.7423 71.5208 81.3326C71.1111 80.9229 70.6041 80.7169 70 80.7146C69.3959 80.7122 68.8889 80.9171 68.4792 81.3291C68.0695 81.7411 67.8647 82.2481 67.8647 82.8499C67.8647 83.4517 68.0695 83.9598 68.4792 84.3741C68.8889 84.7885 69.3959 84.9968 70 84.9922ZM68.264 73.503H71.736V52.6705H68.264V73.503ZM70.0104 100.748C65.6911 100.748 61.6288 99.9291 57.8234 98.2902C54.0203 96.6491 50.7114 94.4223 47.8967 91.61C45.082 88.7976 42.8541 85.4921 41.213 81.6937C39.5718 77.8952 38.7513 73.834 38.7513 69.5101C38.7513 65.1862 39.5718 61.1239 41.213 57.3231C42.8518 53.52 45.0751 50.2111 47.8828 47.3964C50.6906 44.5817 53.9972 42.3538 57.8026 40.7127C61.608 39.0715 65.6703 38.251 69.9896 38.251C74.3089 38.251 78.3712 39.0715 82.1766 40.7127C85.9797 42.3515 89.2886 44.576 92.1033 47.386C94.918 50.1961 97.1459 53.5027 98.787 57.3058C100.428 61.1089 101.249 65.17 101.249 69.4893C101.249 73.8086 100.429 77.8709 98.7905 81.6763C97.1517 85.4817 94.9249 88.7906 92.1102 91.603C89.2955 94.4154 85.9901 96.6433 82.194 98.2868C78.3978 99.9302 74.3366 100.751 70.0104 100.748ZM70 97.2764C77.7543 97.2764 84.3223 94.5855 89.7041 89.2038C95.0858 83.8221 97.7767 77.254 97.7767 69.4997C97.7767 61.7454 95.0858 55.1774 89.7041 49.7957C84.3223 44.4139 77.7543 41.7231 70 41.7231C62.2457 41.7231 55.6777 44.4139 50.2959 49.7957C44.9142 55.1774 42.2233 61.7454 42.2233 69.4997C42.2233 77.254 44.9142 83.8221 50.2959 89.2038C55.6777 94.5855 62.2457 97.2764 70 97.2764Z" fill="#FCFCFC"/>
</svg>