<svg width="16" height="16" viewBox="0 0 16 16" fill="none" xmlns="http://www.w3.org/2000/svg">
<path d="M8.00001 9.60003C8.88366 9.60003 9.60001 8.88368 9.60001 8.00002C9.60001 7.11637 8.88366 6.40002 8.00001 6.40002C7.11635 6.40002 6.40001 7.11637 6.40001 8.00002C6.40001 8.88368 7.11635 9.60003 8.00001 9.60003Z" fill="#92929D"/>
<path fill-rule="evenodd" clip-rule="evenodd" d="M0.366211 8.00006C1.38561 4.75435 4.41785 2.40002 7.99998 2.40002C11.5821 2.40002 14.6143 4.75433 15.6337 8C14.6143 11.2457 11.5821 13.6 7.99996 13.6C4.41786 13.6 1.38563 11.2457 0.366211 8.00006ZM11.2 8.00002C11.2 9.76734 9.76732 11.2 8.00001 11.2C6.2327 11.2 4.80001 9.76734 4.80001 8.00002C4.80001 6.23271 6.2327 4.80002 8.00001 4.80002C9.76732 4.80002 11.2 6.23271 11.2 8.00002Z" fill="#92929D"/>
</svg>