<svg width="18" height="24" viewBox="0 0 18 24" fill="none" xmlns="http://www.w3.org/2000/svg">
<g clip-path="url(#clip0_112_601)">
<path d="M5.24536 17.7788C5.93943 18.6634 6.57117 19.5952 7.136 20.5674C7.61822 21.4818 7.81925 22.1018 8.17166 23.2035C8.38779 23.8122 8.58313 23.9938 9.00309 23.9938C9.46073 23.9938 9.66836 23.6848 9.82877 23.2068C10.1619 22.1664 10.4233 21.3724 10.8357 20.6221C11.6449 19.1736 12.6504 17.8864 13.6384 16.6493C13.9058 16.2992 15.6351 14.2595 16.4137 12.65C16.4137 12.65 17.3705 10.8821 17.3705 8.41294C17.3705 6.10332 16.4269 4.50146 16.4269 4.50146L13.71 5.22905L12.0601 9.57462L11.6519 10.1738L11.5703 10.2824L11.4618 10.4183L11.2712 10.6353L10.9989 10.9076L9.52966 12.1046L5.85641 14.2255L5.24536 17.7788Z" fill="#34A853"/>
<path d="M1.45416 12.3525C2.35066 14.4002 4.07945 16.2002 5.24911 17.7799L11.4617 10.4208C11.4617 10.4208 10.5865 11.5654 8.9988 11.5654C7.23032 11.5654 5.80163 10.1532 5.80163 8.37251C5.80163 7.15139 6.53628 6.3125 6.53628 6.3125L2.31901 7.44253L1.45416 12.3525Z" fill="#FBBC04"/>
<path d="M11.5311 0.378418C13.5944 1.04368 15.3605 2.44033 16.4287 4.49981L11.4636 10.4166C11.4636 10.4166 12.1983 9.56257 12.1983 8.34903C12.1983 6.52686 10.6639 5.1656 9.00632 5.1656C7.43886 5.1656 6.53864 6.30838 6.53864 6.30838V2.58086L11.5311 0.378418Z" fill="#4285F4"/>
<path d="M2.59229 2.99281C3.82466 1.51834 5.99316 0 8.98276 0C10.4332 0 11.526 0.380796 11.526 0.380796L6.53397 6.31167H2.99708L2.59229 2.99281Z" fill="#1A73E8"/>
<path d="M1.45422 12.3525C1.45422 12.3525 0.629456 10.7374 0.629456 8.39752C0.629456 6.18605 1.48914 4.25297 2.59229 2.99268L6.53679 6.31207L1.45422 12.3525Z" fill="#EA4335"/>
</g>
<defs>
<clipPath id="clip0_112_601">
<rect width="16.75" height="24" fill="white" transform="translate(0.625)"/>
</clipPath>
</defs>
</svg>