<svg width="25" height="24" viewBox="0 0 25 24" fill="none" xmlns="http://www.w3.org/2000/svg">
<path d="M6.73304 21C5.55504 21 4.60004 20.02 4.60004 18.81V10.008C4.60004 9.34303 4.89504 8.71303 5.40004 8.29803L11.267 3.48003C11.6419 3.16961 12.1133 2.99976 12.6 2.99976C13.0867 2.99976 13.5582 3.16961 13.933 3.48003L19.799 8.29803C20.305 8.71303 20.6 9.34303 20.6 10.008V18.81C20.6 20.02 19.645 21 18.467 21H6.73304Z" stroke="#EF7206" stroke-width="2" stroke-linecap="round" stroke-linejoin="round"/>
<path d="M10.1 21V15.5C10.1 14.9696 10.3108 14.4609 10.6858 14.0858C11.0609 13.7107 11.5696 13.5 12.1 13.5H13.1C13.6305 13.5 14.1392 13.7107 14.5142 14.0858C14.8893 14.4609 15.1 14.9696 15.1 15.5V21" stroke="#EF7206" stroke-width="2" stroke-linecap="round" stroke-linejoin="round"/>
</svg>