<svg width="356" height="261" viewBox="0 0 356 261" fill="none" xmlns="http://www.w3.org/2000/svg">
<ellipse cx="130.368" cy="130" rx="130.368" ry="130" transform="matrix(-1 0 0 1 308.44 0)" fill="#FDD89A"/>
<ellipse cx="102.432" cy="102.143" rx="102.432" ry="102.143" transform="matrix(-1 0 0 1 280.504 27.8574)" fill="#F59E41"/>
<path d="M245.058 65.451C245.664 64.8497 246.647 64.8497 247.253 65.451L255.217 73.3534C255.245 73.3807 255.287 73.4535 255.336 73.5466C255.569 73.9936 255.672 74.5051 255.672 75.0093V260H98.9194V75.7793V75.0093C98.9194 74.2394 99.2784 73.4509 99.3766 73.3534L107.341 65.451C107.947 64.8497 108.93 64.8497 109.536 65.451L117.046 72.9023L124.556 65.451C125.162 64.8497 126.144 64.8497 126.751 65.451L134.26 72.9023L141.77 65.451C142.376 64.8497 143.359 64.8497 143.965 65.451L151.475 72.9023L158.985 65.451C159.591 64.8497 160.574 64.8497 161.18 65.451L168.69 72.9023L176.2 65.451C176.806 64.8497 177.788 64.8497 178.394 65.451L185.904 72.9023L193.414 65.451C194.02 64.8497 195.003 64.8497 195.609 65.451L203.119 72.9023L210.629 65.451C211.235 64.8497 212.217 64.8497 212.824 65.451L220.333 72.9023L227.843 65.451C228.449 64.8497 229.432 64.8497 230.038 65.451L237.548 72.9023L245.058 65.451Z" fill="#FEEECC" stroke="#030303"/>
<path fill-rule="evenodd" clip-rule="evenodd" d="M156.344 153.214C152.915 153.214 150.136 150.442 150.136 147.023C150.136 143.605 152.915 140.833 156.344 140.833C159.772 140.833 162.552 143.605 162.552 147.023C162.552 150.442 159.772 153.214 156.344 153.214ZM198.248 153.214C194.819 153.214 192.04 150.442 192.04 147.023C192.04 143.605 194.819 140.833 198.248 140.833C201.676 140.833 204.456 143.605 204.456 147.023C204.456 150.442 201.676 153.214 198.248 153.214Z" fill="#030303"/>
<path d="M151.687 186.788C157.282 178.662 166.664 173.333 177.296 173.333C187.927 173.333 197.309 178.662 202.904 186.788" stroke="#030303" stroke-width="2.79476" stroke-linecap="round"/>
<ellipse cx="4.65601" cy="4.64286" rx="4.65601" ry="4.64286" transform="matrix(-1 0 0 1 232.392 35.5952)" stroke="#030303" stroke-width="1.67686"/>
<ellipse cx="3.10401" cy="3.09524" rx="3.10401" ry="3.09524" transform="matrix(-1 0 0 1 57.0154 182.619)" stroke="#030303" stroke-width="1.67686"/>
<path d="M227.736 91.3096H157.896M227.736 107.56H185.832" stroke="#FABB67" stroke-width="1.67686" stroke-linecap="round"/>
<path d="M240.152 239.881H114.44M240.152 224.405H164.725" stroke="#FABB67" stroke-width="1.67686" stroke-linecap="round"/>
<ellipse cx="6.98401" cy="6.96429" rx="6.98401" ry="6.96429" transform="matrix(-1 0 0 1 303.784 154.762)" stroke="#030303" stroke-width="1.67686"/>
<path d="M355 260H0.999996" stroke="#6E7191" stroke-linecap="round"/>
<path d="M83.3459 71.1904H67.8794M94.2634 57.8388V44.8809" stroke="#6E7191" stroke-linecap="round"/>
<path d="M84.2557 60.5828L73.9681 50.3242" stroke="#6E7191" stroke-linecap="round"/>
</svg>