<svg width="25" height="24" viewBox="0 0 25 24" fill="none" xmlns="http://www.w3.org/2000/svg">
<path d="M19.498 9.566H4.902C4.60666 9.56662 4.31527 9.63384 4.04951 9.76265C3.78374 9.89146 3.55045 10.0786 3.367 10.31C3.18476 10.5412 3.0574 10.8107 2.99452 11.0982C2.93164 11.3858 2.93488 11.6839 3.004 11.97L4.569 18.378C4.79518 19.2038 5.28723 19.932 5.969 20.45C6.651 20.969 7.486 21.25 8.345 21.25H16.053C16.912 21.25 17.747 20.969 18.429 20.45C19.1108 19.932 19.6028 19.2038 19.829 18.378L21.394 11.971C21.4993 11.5391 21.4531 11.084 21.2631 10.6821C21.073 10.2802 20.7507 9.95568 20.35 9.763C20.0838 9.63385 19.7919 9.5665 19.496 9.566M8.287 13.46V17.355M12.2 13.46V17.355M16.113 13.46V17.355M19.048 9.566C19.0477 8.67005 18.8703 7.78299 18.526 6.95582C18.1817 6.12864 17.6774 5.37765 17.042 4.746C15.7552 3.46687 14.0144 2.74924 12.2 2.75C10.3856 2.74924 8.64476 3.46687 7.358 4.746C6.72276 5.37773 6.21862 6.12876 5.87453 6.95593C5.53045 7.7831 5.35321 8.67012 5.353 9.566" stroke="#92929D" stroke-width="1.5" stroke-linecap="round" stroke-linejoin="round"/>
</svg>