<svg width="30" height="32" viewBox="0 0 30 32" fill="none" xmlns="http://www.w3.org/2000/svg">
<path d="M12 23.1908V13.8002L2 8.80017V22.5502L10.5 26.8158L10.0156 28.8002L0 23.8002V6.55017L13 0.0657959L26 6.55017V10.7689C25.2708 10.8835 24.6042 11.1179 24 11.472V8.80017L14 13.8002V21.1908L12 23.1908ZM9.78125 3.89392L18.9062 9.11267L22.7656 7.17517L13 2.28455L9.78125 3.89392ZM13 12.0658L16.75 10.1908L7.625 4.97205L3.23438 7.17517L13 12.0658ZM26.875 13.1752C27.3125 13.1752 27.7188 13.2533 28.0938 13.4095C28.4688 13.5658 28.8021 13.7793 29.0938 14.0502C29.3854 14.321 29.6042 14.6491 29.75 15.0345C29.8958 15.42 29.9792 15.8314 30 16.2689C30 16.6752 29.9219 17.071 29.7656 17.4564C29.6094 17.8418 29.3854 18.1804 29.0938 18.472L17.8906 29.6752L12 31.1439L13.4688 25.2533L24.6719 14.0658C24.974 13.7637 25.3125 13.5398 25.6875 13.3939C26.0625 13.2481 26.4583 13.1752 26.875 13.1752ZM27.6719 17.0658C27.8906 16.847 28 16.5814 28 16.2689C28 15.946 27.8958 15.6856 27.6875 15.4877C27.4792 15.2898 27.2083 15.1856 26.875 15.1752C26.7292 15.1752 26.5885 15.196 26.4531 15.2377C26.3177 15.2793 26.1979 15.3575 26.0938 15.472L15.2812 26.2845L14.75 28.3939L16.8594 27.8627L27.6719 17.0658Z" fill="#92929D"/>
</svg>