<svg width="32" height="33" viewBox="0 0 32 33" fill="none" xmlns="http://www.w3.org/2000/svg">
<g clip-path="url(#clip0_1352_929)">
<path d="M1.616 0.175171L0 1.79117L2.84677 6.71425L4.69292 6.44348L15.9618 17.7136L15.0006 18.6367C14.5083 19.129 14.5083 19.8749 15.0006 20.3672L15.5003 20.8681C15.9926 21.3604 16.7458 21.3604 17.1151 20.8681L18.5772 22.329C18.4542 23.0675 18.5772 23.945 19.1926 24.5604L25.8462 31.1758C27.2 32.5296 29.4154 32.5296 30.7692 31.1758C32.3692 29.6989 32.3545 27.4909 31.0006 26.137L24.3852 19.4822C23.7698 18.8669 22.8923 18.6207 22.1538 18.8669L20.5378 17.4059C20.9071 16.9136 20.9071 16.1604 20.5378 15.7899L20.0763 15.3296C19.9644 15.213 19.8301 15.1201 19.6814 15.0567C19.5327 14.9933 19.3727 14.9606 19.2111 14.9606C19.0494 14.9606 18.8894 14.9933 18.7408 15.0567C18.5921 15.1201 18.4577 15.213 18.3458 15.3296L17.5385 16.137L6.26954 4.86809L6.53785 3.02194L1.616 0.175171ZM25.616 0.213325C23.1877 0.0114786 19.968 1.62132 18.4615 3.02071C16.608 4.87425 16.9108 7.29763 18.384 9.63733L15.7698 12.2527L17.616 14.329C18.6006 13.4675 20.0529 13.4675 21.0375 14.329L21.5385 14.8287L21.6542 14.9444L22.7311 13.8675C24.9563 15.1758 27.2726 15.3641 29.0388 13.5979C30.7618 11.9979 32.6302 8.05209 31.7686 5.71363L28.3077 9.29025C27.8154 9.78256 27.0695 9.78256 26.5772 9.29025L22.9994 5.71363C22.8827 5.60175 22.7899 5.46742 22.7264 5.31873C22.663 5.17004 22.6303 5.01005 22.6303 4.8484C22.6303 4.68675 22.663 4.52677 22.7264 4.37808C22.7899 4.22938 22.8827 4.09506 22.9994 3.98317L26.5785 0.406556C26.2708 0.298248 25.9631 0.242863 25.616 0.213325ZM12.0775 15.5598L7.61477 20.0213C7.13514 19.9152 6.64506 19.8636 6.15385 19.8675C2.70769 19.8675 0 22.5752 0 26.0213C0 29.4675 2.70769 32.1752 6.15385 32.1752C9.6 32.1752 12.3077 29.4675 12.3077 26.0213C12.3077 25.3899 12.208 24.7832 12.0382 24.2133L14.6535 21.5979L14.2695 21.0982C13.2849 20.1136 13.2923 18.6219 14.1538 17.6361L12.0775 15.5598ZM21.616 21.1758C21.7698 21.1758 21.9151 21.2053 22.0382 21.3296L29.3083 28.5986C29.5545 28.8447 29.5545 29.2361 29.3083 29.4822C29.0622 29.7284 28.6683 29.7284 28.4222 29.4822L21.1545 22.2133C20.9083 21.9672 20.9083 21.5758 21.1545 21.3296C21.2775 21.2066 21.4622 21.1758 21.616 21.1758ZM7.00062 22.8275L9.34646 25.1746L8.49969 28.3659L5.30831 29.2127L2.96123 26.8656L3.808 23.6742L7.00062 22.8275Z" fill="#92929D"/>
</g>
<defs>
<clipPath id="clip0_1352_929">
<rect width="32" height="32" fill="white" transform="translate(0 0.175171)"/>
</clipPath>
</defs>
</svg>