<svg width="24" height="24" viewBox="0 0 24 24" fill="none" xmlns="http://www.w3.org/2000/svg">
<path d="M18.747 0.75C18.4223 0.75 18.099 0.795 17.787 0.879V0.8775C17.1532 1.04603 16.5752 1.37902 16.1115 1.84275C15.204 2.75025 14.9303 4.00875 15.1538 5.181L11.679 8.65425C11.4565 8.47454 11.1797 8.37541 10.8937 8.373C10.5712 8.373 10.245 8.4975 9.999 8.7435L9.633 9.1095L4.806 4.28325L5.0145 4.0755C5.05545 4.03426 5.08625 3.98406 5.10447 3.92887C5.12269 3.87368 5.12784 3.81502 5.1195 3.7575L4.96275 2.655C4.9556 2.60465 4.93828 2.55627 4.91185 2.51282C4.88542 2.46937 4.85043 2.43175 4.809 2.40225L2.60325 0.82725C2.54203 0.782873 2.46883 0.758036 2.39325 0.756V0.7575C2.34284 0.756512 2.29275 0.7657 2.24597 0.784514C2.19919 0.803329 2.15669 0.831383 2.121 0.867L0.8595 2.127C0.796913 2.18988 0.75865 2.27292 0.751509 2.36135C0.744368 2.44979 0.768814 2.53789 0.8205 2.61L2.3955 4.8165C2.42483 4.85776 2.46222 4.89265 2.5054 4.91908C2.54858 4.9455 2.59666 4.96291 2.64675 4.97025L3.75 5.127C3.80775 5.13558 3.86671 5.13055 3.92218 5.11232C3.97765 5.0941 4.0281 5.06317 4.0695 5.022L4.27575 4.8135L9.10275 9.6405L8.7375 10.005C8.51974 10.2257 8.39041 10.5185 8.37396 10.8281C8.35752 11.1376 8.4551 11.4425 8.64825 11.685L5.172 15.1612C4.0005 14.9385 2.74275 15.2122 1.83525 16.119C1.37208 16.5833 1.03919 17.1612 0.870031 17.7948C0.700867 18.4284 0.701373 19.0954 0.8715 19.7287C0.888588 19.7922 0.922073 19.8501 0.968596 19.8966C1.01512 19.9431 1.07304 19.9765 1.13656 19.9935C1.20008 20.0105 1.26696 20.0106 1.33048 19.9936C1.39401 19.9766 1.45195 19.9432 1.4985 19.8967L3.3885 18.006L4.776 18.4687L5.2365 19.8562L3.3465 21.7462C3.30025 21.7929 3.26707 21.8509 3.25029 21.9144C3.23351 21.978 3.23371 22.0448 3.25088 22.1082C3.26804 22.1716 3.30157 22.2294 3.3481 22.2758C3.39463 22.3222 3.45253 22.3555 3.516 22.3725C4.14927 22.542 4.81596 22.5422 5.44934 22.3731C6.08271 22.204 6.66055 21.8714 7.125 21.4087C8.0325 20.5012 8.30625 19.2427 8.08275 18.0705L10.9177 15.2355L18.192 22.5105C18.4301 22.7466 18.7518 22.8791 19.0871 22.8791C19.4224 22.8791 19.7442 22.7466 19.9823 22.5105L22.5023 19.989C22.7384 19.7508 22.8709 19.4289 22.8709 19.0935C22.8709 18.7581 22.7384 18.4362 22.5023 18.198L15.2288 10.9245L18.063 8.09025C19.2353 8.31375 20.4923 8.04 21.4005 7.1325C21.4003 7.1325 21.4008 7.1325 21.4005 7.1325C21.8637 6.66823 22.1973 6.09028 22.3665 5.45667C22.5356 4.82306 22.5351 4.1561 22.365 3.52275C22.3479 3.45925 22.3144 3.40136 22.2679 3.35489C22.2214 3.30842 22.1635 3.27499 22.0999 3.25797C22.0364 3.24096 21.9695 3.24094 21.906 3.25792C21.8425 3.27491 21.7845 3.3083 21.738 3.35475L19.848 5.24475L18.4613 4.78275L17.9985 3.39525L19.89 1.50525C19.9363 1.45864 19.9695 1.40069 19.9863 1.33722C20.0031 1.27374 20.003 1.20696 19.9859 1.14355C19.9688 1.08014 19.9354 1.02233 19.8889 0.975908C19.8425 0.929481 19.7847 0.896064 19.7213 0.879C19.4036 0.793277 19.076 0.749902 18.747 0.75ZM18.3533 1.5765C18.4793 1.584 18.606 1.60125 18.7327 1.60125L17.304 3.02925C17.2549 3.07866 17.2206 3.14075 17.2048 3.20858C17.1891 3.2764 17.1925 3.34727 17.2148 3.41325L17.8095 5.1975C17.828 5.25276 17.8591 5.30295 17.9004 5.34409C17.9416 5.38523 17.9919 5.41618 18.0473 5.4345L19.8307 6.02925C19.8969 6.0513 19.9678 6.05449 20.0357 6.03846C20.1035 6.02243 20.1655 5.98782 20.2148 5.9385L21.6413 4.512C21.6345 5.28375 21.4298 6.042 20.8695 6.60225C20.088 7.38225 18.99 7.6275 17.9925 7.3635C17.9289 7.34675 17.8621 7.34701 17.7986 7.36425C17.7352 7.38149 17.6774 7.41512 17.631 7.46175L7.45425 17.6385C7.40775 17.6849 7.37427 17.7428 7.35715 17.8062C7.34004 17.8697 7.3399 17.9365 7.35675 18C7.62 18.9975 7.3755 20.0955 6.59475 20.877C6.033 21.4365 5.27625 21.642 4.5045 21.6495L5.931 20.2222C5.98032 20.173 6.01493 20.111 6.03096 20.0431C6.04699 19.9753 6.0438 19.9044 6.02175 19.8382L5.427 18.054C5.40859 17.9988 5.37758 17.9487 5.33645 17.9075C5.29532 17.8664 5.24518 17.8354 5.19 17.817L3.40575 17.2222C3.33963 17.2002 3.26868 17.197 3.20085 17.213C3.13302 17.2291 3.071 17.2637 3.02175 17.313L1.59375 18.741C1.59975 17.9685 1.8045 17.211 2.36625 16.6492C3.147 15.8685 4.24575 15.624 5.244 15.888C5.30736 15.9045 5.37393 15.9041 5.43709 15.8868C5.50025 15.8696 5.55779 15.8361 5.604 15.7897L15.783 5.613C15.8295 5.56657 15.863 5.50873 15.8801 5.44529C15.8972 5.38184 15.8973 5.31502 15.8805 5.2515C15.6173 4.25325 15.861 3.15525 16.6425 2.373C17.0131 2.00192 17.4752 1.73541 17.982 1.6005C18.1028 1.569 18.2273 1.56825 18.3533 1.5765ZM2.4255 1.6215L4.242 2.919L4.35075 3.678L4.011 4.01775L3.67125 4.35825L2.91225 4.2495L1.61475 2.433L2.4255 1.6215ZM10.8937 9.123C10.9815 9.123 11.0632 9.1515 11.1405 9.195L9.189 11.1457C9.13154 11.05 9.10806 10.9376 9.12235 10.8268C9.13664 10.716 9.18787 10.6133 9.26775 10.5352L10.5292 9.27375C10.5769 9.22564 10.6337 9.18758 10.6963 9.16182C10.7589 9.13605 10.826 9.12311 10.8937 9.12375V9.123ZM14.6985 11.4555L21.9728 18.7282C22.0217 18.7757 22.0606 18.8324 22.0872 18.8952C22.1138 18.9579 22.1275 19.0254 22.1275 19.0935C22.1275 19.1616 22.1138 19.2291 22.0872 19.2918C22.0606 19.3546 22.0217 19.4113 21.9728 19.4587L19.452 21.9802C19.4048 22.0294 19.3481 22.0684 19.2854 22.0951C19.2227 22.1218 19.1553 22.1356 19.0871 22.1356C19.019 22.1356 18.9515 22.1218 18.8888 22.0951C18.8262 22.0684 18.7695 22.0294 18.7222 21.9802L11.4472 14.7052L12.177 13.9762L19.452 21.2505L19.9823 20.7202L12.7073 13.4452L13.4385 12.7147L20.7135 19.9897L21.243 19.4587L13.9688 12.1845L14.6985 11.4547V11.4555Z" fill="#92929D"/>
</svg>