<svg width="140" height="139" viewBox="0 0 140 139" fill="none" xmlns="http://www.w3.org/2000/svg">
<rect x="0.5" width="139" height="139" rx="69.5" fill="#4ADE80" fill-opacity="0.3"/>
<rect x="12.5" y="12" width="115" height="115" rx="57.5" fill="#4ADE80"/>
<rect x="37" y="36.4983" width="66" height="66.0034" rx="33" stroke="#FCFCFC" stroke-width="4"/>
<path d="M83.7277 47.6133C83.0853 47.6133 82.4459 47.7023 81.8288 47.8685V47.8655C80.5751 48.1989 79.4317 48.8575 78.5145 49.7748C76.7194 51.57 76.1779 54.0594 76.62 56.3782L69.7466 63.2486C69.3065 62.8931 68.759 62.697 68.1933 62.6923C67.5554 62.6923 66.91 62.9385 66.4234 63.4251L65.6994 64.1491L56.1512 54.6024L56.5636 54.1914C56.6446 54.1098 56.7055 54.0105 56.7416 53.9014C56.7776 53.7922 56.7878 53.6762 56.7713 53.5624L56.4612 51.3815C56.4471 51.2819 56.4128 51.1863 56.3606 51.1003C56.3083 51.0144 56.2391 50.9399 56.1571 50.8816L51.7939 47.7661C51.6728 47.6783 51.528 47.6292 51.3785 47.6252V47.6281C51.2788 47.6262 51.1797 47.6443 51.0872 47.6816C50.9947 47.7188 50.9106 47.7743 50.84 47.8447L48.3446 50.3371C48.2208 50.4615 48.1451 50.6258 48.131 50.8007C48.1169 50.9756 48.1652 51.1499 48.2675 51.2925L51.383 55.6572C51.441 55.7388 51.515 55.8078 51.6004 55.8601C51.6858 55.9124 51.7809 55.9468 51.88 55.9613L54.0623 56.2714C54.1765 56.2884 54.2932 56.2784 54.4029 56.2424C54.5126 56.2063 54.6124 56.1451 54.6943 56.0637L55.1023 55.6513L64.6505 65.1995L63.928 65.9205C63.4973 66.357 63.2415 66.9362 63.2089 67.5486C63.1764 68.161 63.3694 68.764 63.7515 69.2437L56.8751 76.12C54.5578 75.6794 52.0699 76.2209 50.2748 78.0146C49.3586 78.9329 48.7001 80.0762 48.3655 81.3295C48.0308 82.5828 48.0318 83.9021 48.3684 85.155C48.4022 85.2806 48.4684 85.3951 48.5604 85.487C48.6525 85.5789 48.767 85.6451 48.8927 85.6787C49.0183 85.7124 49.1506 85.7124 49.2763 85.6788C49.4019 85.6452 49.5166 85.5792 49.6086 85.4873L53.3472 81.7472L56.0918 82.6626L57.0027 85.4072L53.2641 89.1458C53.1727 89.2381 53.107 89.3528 53.0738 89.4785C53.0406 89.6041 53.041 89.7363 53.075 89.8617C53.1089 89.9872 53.1753 90.1015 53.2673 90.1933C53.3593 90.285 53.4739 90.351 53.5994 90.3845C54.8521 90.7199 56.1709 90.7203 57.4237 90.3857C58.6766 90.0511 59.8196 89.3933 60.7384 88.4782C62.5335 86.683 63.075 84.1936 62.6329 81.8748L68.2408 76.2669L82.6299 90.6575C83.1009 91.1245 83.7373 91.3866 84.4005 91.3866C85.0638 91.3866 85.7002 91.1245 86.1712 90.6575L91.156 85.6698C91.6231 85.1985 91.8852 84.5619 91.8852 83.8984C91.8852 83.2349 91.6231 82.5982 91.156 82.127L76.7683 67.7394L82.3747 62.133C84.6935 62.5751 87.18 62.0336 88.9766 60.2384C88.9761 60.2384 88.9771 60.2384 88.9766 60.2384C89.8928 59.3201 90.5527 58.1768 90.8874 56.9235C91.222 55.6702 91.221 54.3509 90.8845 53.098C90.8507 52.9724 90.7844 52.8579 90.6924 52.766C90.6004 52.6741 90.4858 52.6079 90.3601 52.5743C90.2345 52.5406 90.1022 52.5406 89.9766 52.5742C89.8509 52.6078 89.7363 52.6738 89.6442 52.7657L85.9056 56.5043L83.1625 55.5904L82.2471 52.8458L85.9887 49.1072C86.0802 49.015 86.1459 48.9004 86.1791 48.7748C86.2124 48.6493 86.2122 48.5172 86.1784 48.3918C86.1446 48.2663 86.0784 48.152 85.9866 48.0601C85.8947 47.9683 85.7803 47.9022 85.6549 47.8685C85.0265 47.6989 84.3786 47.6131 83.7277 47.6133ZM82.9489 49.2482C83.1981 49.263 83.4488 49.2971 83.6995 49.2971L80.8733 52.1218C80.7763 52.2196 80.7084 52.3424 80.6772 52.4766C80.646 52.6107 80.6528 52.7509 80.6968 52.8814L81.8733 56.4108C81.9098 56.5201 81.9714 56.6194 82.053 56.7008C82.1347 56.7822 82.2341 56.8434 82.3436 56.8796L85.8715 58.0561C86.0023 58.0997 86.1426 58.1061 86.2768 58.0743C86.411 58.0426 86.5337 57.9742 86.6311 57.8766L89.4528 55.0549C89.4395 56.5814 89.0345 58.0813 87.9262 59.1896C86.3804 60.7325 84.2084 61.2176 82.2353 60.6954C82.1095 60.6622 81.9772 60.6628 81.8517 60.6969C81.7262 60.731 81.6119 60.7975 81.5202 60.8897L61.3896 81.0203C61.2977 81.1121 61.2314 81.2265 61.1976 81.352C61.1637 81.4775 61.1635 81.6097 61.1968 81.7353C61.7175 83.7085 61.2339 85.8804 59.6895 87.4263C58.5783 88.5331 57.0814 88.9395 55.5548 88.9544L58.3765 86.1312C58.4741 86.0337 58.5425 85.9111 58.5743 85.7769C58.606 85.6427 58.5997 85.5024 58.556 85.3716L57.3796 81.8422C57.3431 81.733 57.2818 81.6338 57.2004 81.5525C57.1191 81.4711 57.0199 81.4098 56.9108 81.3734L53.3813 80.1969C53.2506 80.1533 53.1102 80.1469 52.976 80.1787C52.8419 80.2104 52.7192 80.2788 52.6218 80.3764L49.797 83.2011C49.8089 81.673 50.2139 80.1746 51.3251 79.0634C52.8695 77.519 55.0429 77.0354 57.0176 77.5576C57.1429 77.5902 57.2746 77.5894 57.3995 77.5553C57.5245 77.5212 57.6383 77.455 57.7297 77.3633L77.8647 57.2327C77.9567 57.1409 78.0229 57.0265 78.0567 56.901C78.0906 56.7755 78.0909 56.6433 78.0575 56.5177C77.5368 54.543 78.019 52.3711 79.5648 50.8237C80.2979 50.0897 81.212 49.5625 82.2145 49.2956C82.4533 49.2333 82.6996 49.2319 82.9489 49.2482ZM51.4423 49.3372L55.0355 51.9038L55.2506 53.4051L54.5786 54.0772L53.9065 54.7507L52.4052 54.5356L49.8386 50.9424L51.4423 49.3372ZM68.1933 64.1758C68.3669 64.1758 68.5286 64.2322 68.6814 64.3183L64.8211 68.177C64.7075 67.9875 64.661 67.7653 64.6893 67.5462C64.7176 67.327 64.8189 67.1238 64.9769 66.9694L67.4723 64.474C67.5665 64.3789 67.6789 64.3036 67.8027 64.2526C67.9266 64.2017 68.0594 64.1761 68.1933 64.1773V64.1758ZM75.7194 68.7897L90.1086 83.1759C90.2054 83.2697 90.2824 83.382 90.3349 83.5061C90.3875 83.6302 90.4146 83.7636 90.4146 83.8984C90.4146 84.0332 90.3875 84.1666 90.3349 84.2907C90.2824 84.4148 90.2054 84.5271 90.1086 84.6209L85.1223 89.6086C85.0289 89.7058 84.9168 89.7831 84.7927 89.8359C84.6687 89.8887 84.5353 89.9159 84.4005 89.9159C84.2657 89.9159 84.1323 89.8887 84.0083 89.8359C83.8843 89.7831 83.7722 89.7058 83.6788 89.6086L69.2882 75.218L70.7317 73.776L85.1223 88.1651L86.1712 87.1162L71.7806 72.7256L73.227 71.2806L87.6176 85.6712L88.665 84.6209L74.2759 70.2318L75.7194 68.7882V68.7897Z" fill="#FCFCFC"/>
</svg>