<svg width="25" height="24" viewBox="0 0 25 24" fill="none" xmlns="http://www.w3.org/2000/svg">
<g clip-path="url(#clip0_112_647)">
<path d="M11.3 6V7.5H6.80005V6H11.3ZM6.80005 10.5V9H11.3V10.5H6.80005ZM6.80005 13.5V12H9.80005V13.5H6.80005ZM5.30005 6V7.5H3.80005V6H5.30005ZM5.30005 9V10.5H3.80005V9H5.30005ZM3.80005 13.5V12H5.30005V13.5H3.80005ZM2.30005 1.5V22.5H9.80005V24H0.800049V0H13.8665L20.3 6.43359V9H18.8V7.5H12.8V1.5H2.30005ZM14.3 2.56641V6H17.7336L14.3 2.56641ZM21.8 12H24.8V24H11.3V12H14.3V10.5H15.8V12H20.3V10.5H21.8V12ZM23.3 22.5V16.5H12.8V22.5H23.3ZM23.3 15V13.5H12.8V15H23.3Z" fill="#92929D"/>
</g>
<defs>
<clipPath id="clip0_112_647">
<rect width="24" height="24" fill="white" transform="translate(0.800049)"/>
</clipPath>
</defs>
</svg>