<svg width="28" height="29" viewBox="0 0 28 29" fill="none" xmlns="http://www.w3.org/2000/svg">
<path d="M28 4.17517V2.17517H25V0.175171H23V2.17517H22C20.897 2.17517 20 3.07317 20 4.17517V6.17517C20 7.27817 20.897 8.17517 22 8.17517H26V10.1752H20V12.1752H23V14.1752H25V12.1752H26C27.103 12.1752 28 11.2782 28 10.1752V8.17517C28 7.07317 27.103 6.17517 26 6.17517H22V4.17517H28ZM22 18.1752V20.1752H24.586L21 23.7612L18.708 21.4682C18.5208 21.2809 18.2668 21.1755 18.002 21.1752H18C17.7352 21.1755 17.4812 21.2809 17.294 21.4682L12 26.7612L13.414 28.1752L18.001 23.5892L20.293 25.8822C20.4805 26.0696 20.7348 26.175 21 26.175C21.2652 26.175 21.5195 26.0696 21.707 25.8822L26 21.5892V24.1752H28V18.1752H22ZM2 28.1752H0V23.1752C0 19.3152 3.14 16.1752 7 16.1752H13C14.989 16.1752 16.89 17.0252 18.217 18.5082L16.727 19.8422C16.258 19.3177 15.6836 18.8982 15.0414 18.6109C14.3992 18.3237 13.7035 18.1752 13 18.1752H7C4.243 18.1752 2 20.4182 2 23.1752V28.1752ZM10 14.1752C11.8565 14.1752 13.637 13.4377 14.9497 12.1249C16.2625 10.8122 17 9.03169 17 7.17517C17 5.31866 16.2625 3.53818 14.9497 2.22542C13.637 0.912669 11.8565 0.175171 10 0.175171C8.14348 0.175171 6.36301 0.912669 5.05025 2.22542C3.7375 3.53818 3 5.31866 3 7.17517C3 9.03169 3.7375 10.8122 5.05025 12.1249C6.36301 13.4377 8.14348 14.1752 10 14.1752ZM10 2.17517C11.3261 2.17517 12.5979 2.70196 13.5355 3.63964C14.4732 4.57732 15 5.84909 15 7.17517C15 8.50125 14.4732 9.77302 13.5355 10.7107C12.5979 11.6484 11.3261 12.1752 10 12.1752C8.67392 12.1752 7.40215 11.6484 6.46447 10.7107C5.52678 9.77302 5 8.50125 5 7.17517C5 5.84909 5.52678 4.57732 6.46447 3.63964C7.40215 2.70196 8.67392 2.17517 10 2.17517Z" fill="#92929D"/>
</svg>
