<svg width="25" height="24" viewBox="0 0 25 24" fill="none" xmlns="http://www.w3.org/2000/svg">
<path d="M20.3 12.6599C20.1397 12.4774 20.0513 12.2428 20.0513 11.9999C20.0513 11.757 20.1397 11.5224 20.3 11.3399L21.58 9.89989C21.7211 9.74256 21.8087 9.5446 21.8302 9.3344C21.8518 9.12421 21.8062 8.91258 21.7 8.72989L19.7 5.2699C19.5949 5.08742 19.4349 4.94277 19.2428 4.85658C19.0507 4.77039 18.8362 4.74705 18.63 4.7899L16.75 5.1699C16.5108 5.21932 16.2618 5.17948 16.0499 5.0579C15.8381 4.93631 15.678 4.74138 15.6 4.5099L14.99 2.6799C14.923 2.48127 14.7951 2.30876 14.6247 2.18674C14.4542 2.06471 14.2497 1.99935 14.04 1.9999H10.04C9.82198 1.98851 9.60618 2.04882 9.42561 2.17161C9.24504 2.2944 9.10962 2.47291 9.04004 2.6799L8.48004 4.5099C8.40204 4.74138 8.24201 4.93631 8.03016 5.0579C7.8183 5.17948 7.56926 5.21932 7.33004 5.1699L5.40004 4.7899C5.20459 4.76228 5.00534 4.79312 4.82739 4.87853C4.64944 4.96395 4.50074 5.10012 4.40004 5.2699L2.40004 8.72989C2.2912 8.91054 2.24226 9.12098 2.26023 9.33112C2.27819 9.54126 2.36213 9.74034 2.50004 9.89989L3.77004 11.3399C3.93036 11.5224 4.01878 11.757 4.01878 11.9999C4.01878 12.2428 3.93036 12.4774 3.77004 12.6599L2.50004 14.0999C2.36213 14.2595 2.27819 14.4585 2.26023 14.6687C2.24226 14.8788 2.2912 15.0892 2.40004 15.2699L4.40004 18.7299C4.50514 18.9124 4.66516 19.057 4.85729 19.1432C5.04943 19.2294 5.26387 19.2527 5.47004 19.2099L7.35004 18.8299C7.58926 18.7805 7.8383 18.8203 8.05016 18.9419C8.26201 19.0635 8.42204 19.2584 8.50004 19.4899L9.11004 21.3199C9.17962 21.5269 9.31504 21.7054 9.49561 21.8282C9.67618 21.951 9.89198 22.0113 10.11 21.9999H14.11C14.3197 22.0004 14.5242 21.9351 14.6947 21.8131C14.8651 21.691 14.993 21.5185 15.06 21.3199L15.67 19.4899C15.748 19.2584 15.9081 19.0635 16.1199 18.9419C16.3318 18.8203 16.5808 18.7805 16.82 18.8299L18.7 19.2099C18.9062 19.2527 19.1207 19.2294 19.3128 19.1432C19.5049 19.057 19.6649 18.9124 19.77 18.7299L21.77 15.2699C21.8762 15.0872 21.9218 14.8756 21.9002 14.6654C21.8787 14.4552 21.7911 14.2572 21.65 14.0999L20.3 12.6599ZM18.81 13.9999L19.61 14.8999L18.33 17.1199L17.15 16.8799C16.4298 16.7327 15.6806 16.855 15.0446 17.2237C14.4087 17.5924 13.9302 18.1817 13.7 18.8799L13.32 19.9999H10.76L10.4 18.8599C10.1699 18.1617 9.69142 17.5724 9.05545 17.2037C8.41947 16.835 7.67026 16.7127 6.95004 16.8599L5.77004 17.0999L4.47004 14.8899L5.27004 13.9899C5.762 13.4399 6.03397 12.7278 6.03397 11.9899C6.03397 11.252 5.762 10.5399 5.27004 9.98989L4.47004 9.0899L5.75004 6.88989L6.93004 7.1299C7.65026 7.27712 8.39947 7.15478 9.03545 6.78609C9.67142 6.41741 10.1499 5.82805 10.38 5.1299L10.76 3.9999H13.32L13.7 5.13989C13.9302 5.83805 14.4087 6.42741 15.0446 6.79609C15.6806 7.16478 16.4298 7.28712 17.15 7.13989L18.33 6.8999L19.61 9.11989L18.81 10.0199C18.3236 10.5687 18.055 11.2766 18.055 12.0099C18.055 12.7432 18.3236 13.4511 18.81 13.9999ZM12.04 7.9999C11.2489 7.9999 10.4756 8.23449 9.81776 8.67402C9.15996 9.11354 8.64727 9.73826 8.34452 10.4692C8.04177 11.2001 7.96256 12.0043 8.1169 12.7803C8.27124 13.5562 8.65221 14.2689 9.21162 14.8283C9.77103 15.3877 10.4838 15.7687 11.2597 15.923C12.0356 16.0774 12.8399 15.9982 13.5708 15.6954C14.3017 15.3927 14.9264 14.88 15.3659 14.2222C15.8054 13.5644 16.04 12.791 16.04 11.9999C16.04 10.939 15.6186 9.92161 14.8685 9.17147C14.1183 8.42132 13.1009 7.9999 12.04 7.9999ZM12.04 13.9999C11.6445 13.9999 11.2578 13.8826 10.9289 13.6628C10.6 13.4431 10.3437 13.1307 10.1923 12.7653C10.0409 12.3998 10.0013 11.9977 10.0785 11.6097C10.1556 11.2218 10.3461 10.8654 10.6258 10.5857C10.9055 10.306 11.2619 10.1155 11.6499 10.0383C12.0378 9.96115 12.44 10.0008 12.8054 10.1521C13.1709 10.3035 13.4832 10.5599 13.703 10.8888C13.9227 11.2177 14.04 11.6043 14.04 11.9999C14.04 12.5303 13.8293 13.039 13.4543 13.4141C13.0792 13.7892 12.5705 13.9999 12.04 13.9999Z" fill="#92929D"/>
</svg>