<svg width="140" height="139" viewBox="0 0 140 139" fill="none" xmlns="http://www.w3.org/2000/svg">
<rect x="0.5" width="139" height="139" rx="69.5" fill="#4ADE80" fill-opacity="0.3"/>
<rect x="12.5" y="12" width="115" height="115" rx="57.5" fill="#4ADE80"/>
<path d="M70 111.167C93.0119 111.167 111.667 92.5119 111.667 69.5C111.667 46.4882 93.0119 27.8334 70 27.8334C46.9881 27.8334 28.3333 46.4882 28.3333 69.5C28.3333 92.5119 46.9881 111.167 70 111.167Z" fill="#4ADE80"/>
<path d="M51.25 69.5L63.75 82L88.75 57M111.667 69.5C111.667 92.5119 93.0119 111.167 70 111.167C46.9881 111.167 28.3333 92.5119 28.3333 69.5C28.3333 46.4882 46.9881 27.8334 70 27.8334C93.0119 27.8334 111.667 46.4882 111.667 69.5Z" stroke="#FCFCFC" stroke-width="2" stroke-linecap="round" stroke-linejoin="round"/>
</svg>